<svg width="791" height="497" viewBox="0 0 791 497" fill="none" xmlns="http://www.w3.org/2000/svg">
<path d="M97 44.5L169 99M169 99L201.5 66M169 99H201.5M201.5 66L237 82.5L201.5 99M201.5 66L191 44.5M201.5 99L191 160M201.5 99L154 187M191 160V259.5M191 160L237 239L191 259.5M191 160L169 233M191 160L154 187M191 259.5L169 342.5M191 259.5L169 233M191 259.5L210 278M169 342.5L191 391M169 342.5L145.5 265M169 342.5V233M169 342.5L161 372M191 391L220 420L247 445M191 391L161 372M191 391L211.5 434.5M247 445L294 429.5M247 445V391M247 445L211.5 434.5M247 445L311 473M294 429.5L311 473M294 429.5L390 420L384.5 477M294 429.5L247 391M294 429.5L384.5 477M311 473L384.5 477M311 473L341 495.5M384.5 477L446 487L341 495.5M384.5 477L341 495.5M247 391L211.5 434.5M211.5 434.5L161 372M154 187L132.5 199M154 187L145.5 265M154 187L169 233M132.5 199L145.5 265M132.5 199L154 133.5M132.5 199L109 187M145.5 265L132.5 288.5M145.5 265L169 233M145.5 265L149.5 342.5M132.5 288.5L67 308.5L1 239M132.5 288.5L149.5 342.5M124 347.5L149.5 342.5M161 372L124 387V408L67 445M484 453L489 401M489 401L516.5 434.5M489 401L542 297L588.5 322M489 401L588.5 322M489 401L565.5 387M516.5 434.5L579 401M516.5 434.5L565.5 387M579 401L616 328.5M579 401L565.5 387M579 401H616L664.5 434.5M616 328.5L588.5 322M616 328.5L565.5 387M588.5 322L565.5 387M588.5 322L616 212.5M588.5 322L584.091 200.5M616 212.5L603.5 160M616 212.5L631 220.5M616 212.5L621.147 187M616 212.5L583.501 197.472M603.5 160L565.5 104.966M603.5 160L584 198M603.5 160L621.147 187M603.5 160V127M522.5 70.5L516.5 34L563.587 102.196M522.5 70.5L542 153.5M522.5 70.5L459.5 74.5M522.5 70.5L563.587 102.196M542 153.5L437.5 127M542 153.5L530.5 216M542 153.5L565.5 104.966M542 153.5L583.501 197.472M542 153.5L459.5 74.5M437.5 127L341 145M437.5 127L341 66M437.5 127L408.5 44.5M437.5 127L459.5 74.5M341 145L276.5 92.5L341 66M341 145V66M408.5 44.5L347.5 21.5L426.5 17M408.5 44.5L426.5 17M408.5 44.5L459.5 74.5M426.5 17L563.587 102.196M426.5 17L459.5 74.5M603.5 127L621.147 187M603.5 127L563.587 102.196M631 220.5L703 207.5L718 239L790.5 220.5M631 220.5L621.147 187M621.147 187L654 176.5L664.5 153.5L718 70.5M584 198L530.5 216M584 198L584.091 200.5M584 198L583.501 197.472M530.5 216L513 248L498 216H530.5ZM565.5 104.966L583.501 197.472M565.5 104.966L621.147 52L614 1M565.5 104.966L563.587 102.196M584.091 200.5L583.501 197.472" stroke="black" stroke-opacity="0.15"/>
</svg>
