<svg width="758" height="532" viewBox="0 0 758 532" fill="none" xmlns="http://www.w3.org/2000/svg">
<path opacity="0.3" d="M314.5 43.5L358 57M314.5 43.5H420L358 57M314.5 43.5L307.5 79L358 57M279.5 93.5L307.5 103.5L262 148L279.5 93.5ZM332.5 93.5L307.5 114.5L332.5 148V93.5ZM455 14L468.5 43.5L484 14H455ZM586 2L592 14L560.5 43.5L586 2ZM605 296.5L630.5 342.5L655 284L605 296.5ZM695 296.5L677.5 316.5L712.5 330L695 296.5ZM695 132L757.5 197.5L729.5 141L695 132ZM202 37.5L251.5 43.5L226.5 25.5L202 37.5ZM289.5 169L319 215L340.5 158.5L289.5 169ZM217.5 114.5V148H186L217.5 114.5ZM1 99L15 127.5L36.5 99H1ZM36.5 342.5L68 406L115.5 337.5L36.5 342.5ZM75.5 288.5L90.5 312L101.5 280L75.5 288.5ZM251.5 371.5L208 401L289.5 418L251.5 371.5ZM131.5 454.5H163L147.5 483L131.5 454.5ZM186 489L226.5 530L217.5 497.5L186 489ZM389 504.5L442.5 523L477.5 477L389 504.5ZM340.5 450L371 497.5L393 438L340.5 450ZM477.5 504.5L468.5 523L500 517L477.5 504.5ZM126 136.5L131.5 163.5L177.5 119L126 136.5ZM729 426L746 399L751.5 414.5L729 426ZM534 83V119L579.5 148L534 83Z" stroke="black"/>
</svg>
