<svg width="827" height="775" viewBox="0 0 827 775" fill="none" xmlns="http://www.w3.org/2000/svg">
<g opacity="0.13">
<circle cx="255" cy="5" r="5" fill="black"/>
<circle cx="209.5" cy="60.5" r="6.5" fill="black"/>
<circle cx="287.5" cy="148.5" r="6.5" fill="black"/>
<circle cx="349" cy="155" r="6" fill="black"/>
<circle cx="528.5" cy="302.5" r="14" stroke="black"/>
<circle cx="546" cy="547" r="9.5" stroke="black"/>
<circle cx="282" cy="547" r="9.5" stroke="black"/>
<circle cx="114.5" cy="319.5" r="10" stroke="black"/>
<circle cx="117.5" cy="331.5" r="10" stroke="black"/>
<circle cx="710.5" cy="319.5" r="10" stroke="black"/>
<circle cx="713.5" cy="331.5" r="10" stroke="black"/>
<circle cx="315.5" cy="114.5" r="4.5" fill="black"/>
<circle cx="137.5" cy="235.5" r="4.5" fill="black"/>
<circle cx="104.5" cy="198.5" r="3.5" fill="black"/>
<circle cx="26.5" cy="241.5" r="2.5" fill="black"/>
<circle cx="151.5" cy="278.5" r="2.5" fill="black"/>
<circle cx="193.5" cy="261.5" r="2.5" fill="black"/>
<circle cx="206.5" cy="289.5" r="2.5" fill="black"/>
<circle cx="188.5" cy="321.5" r="2.5" fill="black"/>
<circle cx="148.5" cy="377.5" r="2.5" fill="black"/>
<circle cx="168.5" cy="387.5" r="3.5" fill="black"/>
<circle cx="206.5" cy="423.5" r="3.5" fill="black"/>
<circle cx="266.5" cy="428.5" r="3.5" fill="black"/>
<circle cx="190" cy="374" r="2" fill="black"/>
<circle cx="120.5" cy="422.5" r="3.5" fill="black"/>
<circle cx="103.5" cy="496.5" r="3.5" fill="black"/>
<circle cx="3.5" cy="536.5" r="3.5" fill="black"/>
<circle cx="83.5" cy="579.5" r="3.5" fill="black"/>
<circle cx="206.5" cy="533.5" r="3.5" fill="black"/>
<circle cx="269.5" cy="512.5" r="3.5" fill="black"/>
<circle cx="162.5" cy="532.5" r="3.5" fill="black"/>
<circle cx="19.5" cy="670.5" r="3.5" fill="black"/>
<circle cx="245" cy="463" r="2" fill="black"/>
<circle cx="228" cy="451" r="2" fill="black"/>
<circle cx="41" cy="431" r="2" fill="black"/>
<circle cx="89" cy="545" r="2" fill="black"/>
<circle cx="59" cy="483" r="3" fill="black"/>
<circle cx="168" cy="474" r="3" fill="black"/>
<circle cx="238" cy="442" r="3" fill="black"/>
<circle cx="232" cy="540" r="3" fill="black"/>
<circle cx="198" cy="560" r="3" fill="black"/>
<circle cx="157.5" cy="596.5" r="3.5" fill="black"/>
<circle cx="161" cy="576" r="2" fill="black"/>
<circle cx="183" cy="529" r="2" fill="black"/>
<circle cx="283" cy="582" r="2" fill="black"/>
<circle cx="145" cy="677" r="3" fill="black"/>
<circle cx="97" cy="634" r="3" fill="black"/>
<circle cx="255" cy="638" r="3" fill="black"/>
<circle cx="318.5" cy="672.5" r="3.5" fill="black"/>
<circle cx="250" cy="767" r="5" fill="black"/>
<circle cx="292" cy="713" r="3" fill="black"/>
<circle cx="489" cy="772" r="3" fill="black"/>
<circle cx="428" cy="608" r="3" fill="black"/>
<circle cx="315" cy="579" r="3" fill="black"/>
<circle cx="423.5" cy="667.5" r="4.5" fill="black"/>
<circle cx="379.5" cy="682.5" r="2.5" fill="black"/>
<circle cx="284.5" cy="633.5" r="2.5" fill="black"/>
<circle cx="257.5" cy="610.5" r="2.5" fill="black"/>
<circle cx="228.5" cy="580.5" r="2.5" fill="black"/>
<circle cx="480.5" cy="156.5" r="4.5" fill="black"/>
<circle cx="375.5" cy="197.5" r="4.5" fill="black"/>
<circle cx="542.5" cy="152.5" r="4.5" fill="black"/>
<circle cx="649.5" cy="178.5" r="4.5" fill="black"/>
<circle cx="726.5" cy="201.5" r="4.5" fill="black"/>
<circle cx="555.5" cy="226.5" r="4.5" fill="black"/>
<circle cx="521.5" cy="425.5" r="4.5" fill="black"/>
<circle cx="495.5" cy="263.5" r="4.5" fill="black"/>
<circle cx="564.5" cy="408.5" r="4.5" fill="black"/>
<circle cx="667.5" cy="408.5" r="4.5" fill="black"/>
<circle cx="755.5" cy="424.5" r="4.5" fill="black"/>
<circle cx="720.5" cy="274.5" r="4.5" fill="black"/>
<circle cx="755.5" cy="259.5" r="4.5" fill="black"/>
<circle cx="650.5" cy="520.5" r="4.5" fill="black"/>
<circle cx="679.5" cy="580.5" r="4.5" fill="black"/>
<circle cx="554" cy="621" r="3" fill="black"/>
<circle cx="520" cy="638" r="3" fill="black"/>
<circle cx="479" cy="675" r="3" fill="black"/>
<circle cx="411" cy="643" r="2" fill="black"/>
<circle cx="487" cy="661" r="2" fill="black"/>
<circle cx="509.5" cy="671.5" r="3.5" fill="black"/>
<circle cx="540.5" cy="715.5" r="3.5" fill="black"/>
<circle cx="647.5" cy="588.5" r="3.5" fill="black"/>
<circle cx="698" cy="619" r="2" fill="black"/>
<circle cx="577" cy="486" r="2" fill="black"/>
<circle cx="503" cy="614" r="3" fill="black"/>
<circle cx="528" cy="592" r="3" fill="black"/>
<circle cx="613" cy="588" r="3" fill="black"/>
<circle cx="603" cy="573" r="3" fill="black"/>
<circle cx="747" cy="579" r="3" fill="black"/>
<circle cx="809" cy="671" r="3" fill="black"/>
<circle cx="824" cy="537" r="3" fill="black"/>
<circle cx="709" cy="421" r="4" fill="black"/>
<circle cx="696" cy="347" r="4" fill="black"/>
<circle cx="822" cy="411" r="2" fill="black"/>
<circle cx="738" cy="397" r="2" fill="black"/>
<circle cx="715.5" cy="438.5" r="2.5" fill="black"/>
<circle cx="803.5" cy="242.5" r="2.5" fill="black"/>
<circle cx="510.5" cy="112.5" r="2.5" fill="black"/>
<circle cx="462.5" cy="208.5" r="2.5" fill="black"/>
<circle cx="603.5" cy="289.5" r="2.5" fill="black"/>
<circle cx="377.5" cy="252.5" r="2.5" fill="black"/>
<circle cx="353.5" cy="234.5" r="2.5" fill="black"/>
<circle cx="337.5" cy="185.5" r="2.5" fill="black"/>
<circle cx="442.5" cy="183.5" r="2.5" fill="black"/>
<circle cx="729.5" cy="468.5" r="2.5" fill="black"/>
<circle cx="653.5" cy="483.5" r="2.5" fill="black"/>
<circle cx="627.5" cy="438.5" r="2.5" fill="black"/>
<circle cx="591.5" cy="441.5" r="2.5" fill="black"/>
<circle cx="657.5" cy="238.5" r="2.5" fill="black"/>
<circle cx="648.5" cy="190.5" r="2.5" fill="black"/>
<circle cx="687.5" cy="368.5" r="2.5" fill="black"/>
<circle cx="658.5" cy="371.5" r="2.5" fill="black"/>
<circle cx="640.5" cy="346.5" r="2.5" fill="black"/>
<circle cx="467.5" cy="315.5" r="2.5" fill="black"/>
<circle cx="377.5" cy="333.5" r="2.5" fill="black"/>
<circle cx="617.5" cy="387.5" r="2.5" fill="black"/>
<circle cx="637" cy="316" r="4" fill="black"/>
<circle cx="579" cy="343" r="4" fill="black"/>
<circle cx="683" cy="677" r="3" fill="black"/>
<circle cx="511" cy="578" r="3" fill="black"/>
<circle cx="353.5" cy="280.5" r="3.5" fill="black"/>
<circle cx="306.5" cy="309.5" r="3.5" fill="black"/>
<circle cx="270.5" cy="273.5" r="3.5" fill="black"/>
<circle cx="302.5" cy="234.5" r="3.5" fill="black"/>
<circle cx="228.5" cy="235.5" r="3.5" fill="black"/>
<circle cx="228.5" cy="350.5" r="3.5" fill="black"/>
<circle cx="280.5" cy="335.5" r="3.5" fill="black"/>
<line x1="62.5" y1="543" x2="62.5" y2="560" stroke="black"/>
<line x1="54" y1="551.5" x2="73" y2="551.5" stroke="black"/>
<line x1="228.5" y1="614" x2="228.5" y2="631" stroke="black"/>
<line x1="220" y1="622.5" x2="239" y2="622.5" stroke="black"/>
<line x1="601.5" y1="592" x2="601.5" y2="609" stroke="black"/>
<line x1="593" y1="600.5" x2="612" y2="600.5" stroke="black"/>
<line x1="593.5" y1="615" x2="593.5" y2="632" stroke="black"/>
<line x1="585" y1="623.5" x2="604" y2="623.5" stroke="black"/>
<line x1="257.677" y1="336" x2="257.677" y2="347" stroke="black"/>
<line x1="252" y1="341.324" x2="264.294" y2="341.324" stroke="black"/>
<line x1="559.202" y1="341.631" x2="559.202" y2="358" stroke="black"/>
<line x1="551" y1="349.797" x2="569.294" y2="349.797" stroke="black"/>
<line x1="814.202" y1="362" x2="814.202" y2="378.368" stroke="black"/>
<line x1="806" y1="370.166" x2="824.294" y2="370.166" stroke="black"/>
<line x1="329.026" y1="313" x2="329.026" y2="335.368" stroke="black"/>
<line x1="318" y1="324.342" x2="343" y2="324.342" stroke="black"/>
</g>
</svg>
