<svg width="43" height="43" viewBox="0 0 43 43" fill="none" xmlns="http://www.w3.org/2000/svg">
<path d="M27.6849 22.1872C27.2922 21.7945 27.2922 21.2055 27.6849 20.8128L42.411 6.08676C42.8037 5.69406 43 5.10502 43 4.71233C43 4.31963 42.8037 3.73059 42.411 3.3379L39.6621 0.589041C39.2694 0.196347 38.6804 0 38.2877 0C37.6986 0 37.3059 0.196347 36.9132 0.589041L22.1872 15.3151C21.7945 15.7078 21.2055 15.7078 20.8128 15.3151L6.08676 0.589041C5.69406 0.196347 5.10502 0 4.71233 0C4.31963 0 3.73059 0.196347 3.3379 0.589041L0.589041 3.3379C0.196347 3.73059 0 4.31963 0 4.71233C0 5.10502 0.196347 5.69406 0.589041 6.08676L15.3151 20.8128C15.7078 21.2055 15.7078 21.7945 15.3151 22.1872L0.589041 36.9132C0.196347 37.3059 0 37.895 0 38.2877C0 38.6804 0.196347 39.2694 0.589041 39.6621L3.3379 42.411C3.73059 42.8037 4.31963 43 4.71233 43C5.10502 43 5.69406 42.8037 6.08676 42.411L20.8128 27.6849C21.2055 27.2922 21.7945 27.2922 22.1872 27.6849L36.9132 42.411C37.3059 42.8037 37.895 43 38.2877 43C38.6804 43 39.2694 42.8037 39.6621 42.411L42.411 39.6621C42.8037 39.2694 43 38.6804 43 38.2877C43 37.895 42.8037 37.3059 42.411 36.9132L27.6849 22.1872Z" fill="#00FF29"/>
</svg>
