<svg width="57" height="57" viewBox="0 0 57 57" fill="none" xmlns="http://www.w3.org/2000/svg">
<g clip-path="url(#clip0)">
<path d="M56.6738 10.3456L51.3301 5.00185C51.0118 4.68352 50.533 4.58828 50.1168 4.76049C49.701 4.9327 49.4297 5.33844 49.4297 5.78897V6.90225H33.5098C32.8949 6.90225 32.3965 7.40062 32.3965 8.01553C32.3965 8.63001 32.8949 9.12881 33.5098 9.12881H50.543C51.0205 9.12881 51.4275 8.82831 51.5858 8.40605L54.3125 11.1327L51.5858 13.8594C51.4275 13.4371 51.0205 13.1366 50.543 13.1366H43.2397C43.2327 13.1366 43.2258 13.1366 43.2184 13.1366H28.5C20.0286 13.1366 13.1367 20.0285 13.1367 28.4999C13.1367 36.9713 20.0286 43.8632 28.5 43.8632C36.9714 43.8632 43.8633 36.9713 43.8633 28.4999C43.8633 22.94 40.8944 18.0603 36.4591 15.3632H42.7361C46.0511 18.9513 47.8711 23.598 47.8711 28.4999C47.8711 39.1813 39.1814 47.871 28.5 47.871C17.8186 47.871 9.12891 39.1813 9.12891 28.4999C9.12891 19.5863 15.1606 11.8568 23.7973 9.70328C24.3939 9.55456 24.757 8.95008 24.6083 8.35387C24.4596 7.75722 23.8551 7.3941 23.2584 7.54282C18.6666 8.68785 14.5114 11.3732 11.5577 15.104C8.51225 18.9509 6.90234 23.5832 6.90234 28.4999C6.90234 33.4384 8.56966 37.9941 11.3694 41.6366H7.57031V40.5233C7.57031 40.0728 7.29895 39.6671 6.88321 39.4949C6.46703 39.3227 5.98824 39.4179 5.66991 39.7362L0.326157 45.08C-0.108719 45.5144 -0.108719 46.2193 0.326157 46.6542L5.66991 51.998C5.883 52.2111 6.1674 52.3241 6.45703 52.3241C6.60054 52.3241 6.74535 52.2963 6.88321 52.2393C7.29895 52.0671 7.57031 51.6609 7.57031 51.2108V50.0976H28.5C40.4091 50.0976 50.0977 40.409 50.0977 28.4999C50.0977 23.6984 48.5308 19.1179 45.6445 15.3632H49.4297V16.4765C49.4297 16.9266 49.701 17.3327 50.1168 17.5049C50.2546 17.5619 50.399 17.5898 50.5425 17.5898C50.8326 17.5898 51.117 17.4767 51.3301 17.2636L56.6738 11.9198C57.1087 11.485 57.1087 10.78 56.6738 10.3456ZM41.6367 28.4999C41.6367 35.7432 35.7437 41.6366 28.5 41.6366C21.2563 41.6366 15.3633 35.7432 15.3633 28.4999C15.3633 21.2562 21.2563 15.3632 28.5 15.3632C35.7437 15.3632 41.6367 21.2562 41.6367 28.4999ZM6.45703 47.871C5.97954 47.871 5.57249 48.1715 5.4142 48.5938L2.68753 45.8671L5.4142 43.1404C5.57249 43.5627 5.97954 43.8632 6.45703 43.8632H13.3363C14.9754 45.4814 16.8714 46.8395 18.9567 47.871H6.45703Z" fill="#363636"/>
<path d="M27.732 29.3016C27.9494 29.5186 28.2343 29.6273 28.5191 29.6273C28.804 29.6273 29.0888 29.5186 29.3062 29.3016L35.3675 23.2399C35.8024 22.805 35.8024 22.1001 35.3675 21.6652C34.9331 21.2307 34.2282 21.2307 33.7933 21.6652L28.5187 26.9398L26.0425 24.4636C25.6081 24.0287 24.9031 24.0287 24.4682 24.4636C24.0334 24.898 24.0334 25.603 24.4682 26.0379L27.732 29.3016Z" fill="#363636"/>
<path d="M28.5 19.8164C28.7927 19.8164 29.0801 19.6973 29.2871 19.4902C29.4941 19.2832 29.6133 18.9958 29.6133 18.7031C29.6133 18.4105 29.4941 18.123 29.2871 17.916C29.0801 17.709 28.7927 17.5898 28.5 17.5898C28.2073 17.5898 27.9199 17.709 27.7129 17.916C27.5059 18.123 27.3867 18.4105 27.3867 18.7031C27.3867 18.9958 27.5059 19.2832 27.7129 19.4902C27.9199 19.6973 28.2073 19.8164 28.5 19.8164Z" fill="#363636"/>
<path d="M28.5 37.1836C28.2073 37.1836 27.9199 37.3027 27.7129 37.5098C27.5059 37.7168 27.3867 38.0042 27.3867 38.2969C27.3867 38.5895 27.5059 38.877 27.7129 39.084C27.9199 39.291 28.2073 39.4102 28.5 39.4102C28.7927 39.4102 29.0801 39.291 29.2871 39.084C29.4941 38.877 29.6133 38.5895 29.6133 38.2969C29.6133 38.0042 29.4941 37.7168 29.2871 37.5098C29.0801 37.3027 28.7927 37.1836 28.5 37.1836Z" fill="#363636"/>
<path d="M38.2969 29.6133C38.5895 29.6133 38.877 29.4941 39.084 29.2871C39.291 29.0801 39.4102 28.7927 39.4102 28.5C39.4102 28.2073 39.291 27.9199 39.084 27.7129C38.877 27.5059 38.5895 27.3867 38.2969 27.3867C38.0042 27.3867 37.7168 27.5059 37.5098 27.7129C37.3027 27.9199 37.1836 28.206 37.1836 28.5C37.1836 28.7927 37.3027 29.0801 37.5098 29.2871C37.7168 29.4941 38.0042 29.6133 38.2969 29.6133Z" fill="#363636"/>
<path d="M17.916 27.7129C17.709 27.9199 17.5898 28.2073 17.5898 28.5C17.5898 28.7927 17.709 29.0801 17.916 29.2871C18.123 29.4941 18.4105 29.6133 18.7031 29.6133C18.9958 29.6133 19.2832 29.4941 19.4902 29.2871C19.6973 29.0801 19.8164 28.7927 19.8164 28.5C19.8164 28.2073 19.6973 27.9199 19.4902 27.7129C19.2832 27.5059 18.9958 27.3867 18.7031 27.3867C18.4105 27.3867 18.123 27.5059 17.916 27.7129Z" fill="#363636"/>
<path d="M28.5 9.12891C28.7927 9.12891 29.0801 9.00975 29.2871 8.80275C29.4941 8.59575 29.6133 8.3083 29.6133 8.01562C29.6133 7.72295 29.4941 7.4355 29.2871 7.2285C29.0801 7.0215 28.7927 6.90234 28.5 6.90234C28.2073 6.90234 27.9199 7.0215 27.7129 7.2285C27.5059 7.4355 27.3867 7.72295 27.3867 8.01562C27.3867 8.3083 27.5059 8.59575 27.7129 8.80275C27.9199 9.00975 28.2073 9.12891 28.5 9.12891Z" fill="#363636"/>
</g>
<defs>
<clipPath id="clip0">
<rect width="57" height="57" fill="white"/>
</clipPath>
</defs>
</svg>
