<svg width="63" height="63" viewBox="0 0 63 63" fill="none" xmlns="http://www.w3.org/2000/svg">
<g clip-path="url(#clip0)">
<path d="M31.5 38.6128C28.6987 38.6128 26.4194 40.8921 26.4194 43.6934C26.4194 46.4947 28.6987 48.7741 31.5 48.7741C34.3013 48.7741 36.5807 46.4947 36.5807 43.6934C36.5807 40.8921 34.3013 38.6128 31.5 38.6128ZM31.5 46.7418C29.8195 46.7418 28.4516 45.3739 28.4516 43.6934C28.4516 42.013 29.8195 40.6451 31.5 40.6451C33.1805 40.6451 34.5484 42.013 34.5484 43.6934C34.5484 45.3739 33.1805 46.7418 31.5 46.7418Z" fill="#363636"/>
<path d="M30.4839 4.06445H38.6129V6.09671H30.4839V4.06445Z" fill="#363636"/>
<path d="M30.4839 8.12915H38.6129V10.1614H30.4839V8.12915Z" fill="#363636"/>
<path d="M24.3871 12.1936H38.6129V14.2259H24.3871V12.1936Z" fill="#363636"/>
<path d="M24.3871 16.2581H38.6129V18.2903H24.3871V16.2581Z" fill="#363636"/>
<path d="M24.3871 20.3225H38.6129V22.3548H24.3871V20.3225Z" fill="#363636"/>
<path d="M63 32.5161V24.3871H48.7742V32.5161H54.871V42.6774H42.6774V40.9285L40.1827 40.0964L41.3586 37.7451L37.4484 33.8349L35.0961 35.0118L34.2651 32.5161H32.5161V26.4194H42.6774V14.2258H54.871V19.9018L52.541 17.5719L51.1041 19.0088L55.8871 23.7917L60.67 19.0088L59.2332 17.5719L56.9032 19.9018V12.1935H42.6774V0H27.0147L20.3226 6.69216V12.1935H6.09677V19.9018L3.76682 17.5719L2.32995 19.0088L7.1129 23.7917L11.8959 19.0088L10.459 17.5719L8.12903 19.9018V14.2258H20.3226V26.4194H30.4839V32.5161H28.7349L27.9039 35.0118L25.5516 33.8349L21.6414 37.7451L22.8173 40.0964L20.3226 40.9285V42.6774H8.12903V32.5161H14.2258V24.3871H0V32.5161H6.09677V48.9186C4.34782 49.3726 3.04839 50.9508 3.04839 52.8387C3.04839 55.0803 4.87127 56.9032 7.1129 56.9032C9.35454 56.9032 11.1774 55.0803 11.1774 52.8387C11.1774 50.9508 9.87799 49.3726 8.12903 48.9186V44.7097H14.2258V57.0903C13.0459 57.511 12.1935 58.6289 12.1935 59.9516C12.1935 61.6321 13.5615 63 15.2419 63C16.9224 63 18.2903 61.6321 18.2903 59.9516C18.2903 58.6289 17.4379 57.511 16.2581 57.0903V44.7097H20.3226V46.4586L22.8173 47.2907L21.6414 49.642L25.5516 53.5522L27.9039 52.3753L28.7349 54.871H34.2641L35.0951 52.3753L37.4474 53.5522L41.3576 49.642L40.1818 47.2907L42.6774 46.4586V44.7097H46.7419V57.0903C45.5621 57.511 44.7097 58.6289 44.7097 59.9516C44.7097 61.6321 46.0776 63 47.7581 63C49.4385 63 50.8064 61.6321 50.8064 59.9516C50.8064 58.6289 49.9541 57.511 48.7742 57.0903V44.7097H54.871V48.9186C53.122 49.3726 51.8226 50.9508 51.8226 52.8387C51.8226 55.0803 53.6455 56.9032 55.8871 56.9032C58.1287 56.9032 59.9516 55.0803 59.9516 52.8387C59.9516 50.9508 58.6522 49.3726 56.9032 48.9186V32.5161H63ZM26.4194 3.46913V6.09677H23.7917L26.4194 3.46913ZM22.3548 8.12903H28.4516V2.03226H40.6452V24.3871H22.3548V8.12903ZM2.03226 26.4194H12.1935V30.4839H2.03226V26.4194ZM9.14516 52.8387C9.14516 53.9595 8.23372 54.871 7.1129 54.871C5.99208 54.871 5.08065 53.9595 5.08065 52.8387C5.08065 51.7179 5.99208 50.8064 7.1129 50.8064C8.23372 50.8064 9.14516 51.7179 9.14516 52.8387ZM15.2419 60.9677C14.6813 60.9677 14.2258 60.5113 14.2258 59.9516C14.2258 59.3919 14.6813 58.9355 15.2419 58.9355C15.8026 58.9355 16.2581 59.3919 16.2581 59.9516C16.2581 60.5113 15.8026 60.9677 15.2419 60.9677ZM40.6452 44.993L38.3142 45.7705L38.1425 46.2185C38.0914 46.3485 38.0408 46.478 37.9848 46.6035L37.7878 47.0436L38.8863 49.2406L37.048 51.0788L34.851 49.9804L34.4114 50.1773C34.2864 50.2334 34.1594 50.284 34.0304 50.3331L33.5779 50.5038L32.7994 52.8387H30.1996L29.4211 50.5038L28.9686 50.3331C28.8396 50.284 28.7126 50.2334 28.5876 50.1773L28.148 49.9804L25.951 51.0788L24.1127 49.2406L25.2112 47.0436L25.0142 46.6035C24.9572 46.4765 24.9076 46.3485 24.8565 46.2185L24.6848 45.7705L22.3548 44.993V42.3931L24.6858 41.6156L24.8575 41.1676C24.9086 41.0376 24.9592 40.9081 25.0152 40.7821L25.2122 40.3425L24.1137 38.1455L25.952 36.3073L28.149 37.4058L28.5886 37.2088C28.7136 37.1527 28.8406 37.1021 28.9696 37.053L29.4221 36.8823L30.2006 34.5484H32.8004L33.5789 36.8833L34.0314 37.054C34.1604 37.1031 34.2874 37.1537 34.4124 37.2098L34.852 37.4067L37.049 36.3083L38.8873 38.1465L37.7888 40.3435L37.9858 40.7836C38.0428 40.9106 38.0924 41.0386 38.1435 41.1686L38.3152 41.6166L40.6452 42.3941V44.993ZM47.7581 60.9677C47.1974 60.9677 46.7419 60.5113 46.7419 59.9516C46.7419 59.3919 47.1974 58.9355 47.7581 58.9355C48.3187 58.9355 48.7742 59.3919 48.7742 59.9516C48.7742 60.5113 48.3187 60.9677 47.7581 60.9677ZM57.9194 52.8387C57.9194 53.9595 57.0079 54.871 55.8871 54.871C54.7663 54.871 53.8548 53.9595 53.8548 52.8387C53.8548 51.7179 54.7663 50.8064 55.8871 50.8064C57.0079 50.8064 57.9194 51.7179 57.9194 52.8387ZM50.8064 26.4194H60.9677V30.4839H50.8064V26.4194Z" fill="#363636"/>
</g>
<defs>
<clipPath id="clip0">
<rect width="63" height="63" fill="white"/>
</clipPath>
</defs>
</svg>
