<svg width="18" height="18" viewBox="0 0 18 18" fill="none" xmlns="http://www.w3.org/2000/svg">
<g clip-path="url(#clip0)">
<path d="M17.6623 7.44679L15.2086 6.49263C15.1935 6.4561 15.1783 6.41971 15.1625 6.38346L16.2231 3.97279C16.3111 3.77283 16.2673 3.53938 16.1128 3.38488L14.6147 1.88676C14.4602 1.73227 14.2267 1.6886 14.0268 1.77649L11.5893 2.84916C11.5656 2.83914 11.5418 2.82939 11.5182 2.81977L10.5528 0.337692C10.4735 0.13417 10.2776 0 10.0591 0H7.94049C7.722 0 7.52589 0.13417 7.44679 0.337692L6.48151 2.81991C6.45775 2.82952 6.43399 2.83927 6.41037 2.8493L3.97279 1.7769C3.77283 1.68887 3.53938 1.73268 3.38488 1.88717L1.88676 3.38529C1.73227 3.53979 1.68846 3.77325 1.77649 3.9732L2.83721 6.38387C2.82156 6.42012 2.80618 6.45651 2.79121 6.49291L0.337692 7.44721C0.134033 7.52644 0 7.72241 0 7.9409V10.0596C0 10.2781 0.13417 10.4741 0.337692 10.5532L2.75331 11.4926C2.77487 11.5473 2.79711 11.6018 2.82005 11.6559L1.7769 14.0272C1.68887 14.2271 1.73268 14.4606 1.88717 14.6151L3.38529 16.1132C3.53979 16.2677 3.77325 16.3115 3.9732 16.2235L6.31754 15.1919C6.38401 15.2208 6.45116 15.2489 6.519 15.2758L7.44721 17.6623C7.52644 17.8658 7.72241 18 7.9409 18H10.0595C10.278 18 10.4741 17.8658 10.5532 17.6623L11.4812 15.2756C11.5491 15.2487 11.6164 15.2207 11.6828 15.1917L14.0272 16.2231C14.2271 16.3111 14.4606 16.2673 14.6151 16.1128L16.1132 14.6147C16.2677 14.4602 16.3115 14.2267 16.2235 14.0268L15.1801 11.6556C15.203 11.6014 15.2252 11.5469 15.2468 11.4922L17.6623 10.5528C17.8659 10.4735 18 10.2776 18 10.0591V7.94049C18 7.722 17.8658 7.52589 17.6623 7.44679ZM16.9406 9.69679L14.6412 10.5911C14.497 10.6471 14.3845 10.7636 14.3333 10.9095C14.2716 11.0856 14.2002 11.2608 14.121 11.4302C14.0563 11.5686 14.0545 11.7282 14.116 11.8678L15.1078 14.1218L14.1221 15.1075L11.8919 14.1263C11.75 14.064 11.5881 14.0667 11.4486 14.1339C11.2715 14.2193 11.0855 14.2968 10.8955 14.3645C10.7506 14.416 10.6353 14.528 10.5795 14.6714L9.6972 16.9406H8.30317L7.4207 14.6715C7.36494 14.5282 7.24959 14.4161 7.10471 14.3645C6.91492 14.2969 6.72884 14.2194 6.55155 14.134C6.41202 14.0669 6.25011 14.0641 6.10839 14.1265L3.87817 15.1078L2.89242 14.1222L3.88407 11.8681C3.94559 11.7283 3.94381 11.5689 3.87913 11.4304C3.80003 11.2614 3.72848 11.0861 3.66668 10.9098C3.61546 10.7638 3.50298 10.6475 3.35879 10.5913L1.05935 9.6972V8.30317L3.39216 7.39598C3.53361 7.34091 3.64457 7.22789 3.69717 7.08548C3.75539 6.92742 3.82214 6.76907 3.89561 6.61472C3.96194 6.4756 3.96427 6.31465 3.90234 6.17362L2.89215 3.87817L3.87789 2.89256L6.1971 3.91291C6.33608 3.97402 6.49469 3.97251 6.63257 3.90879C6.77718 3.84205 6.92481 3.78107 7.0712 3.72793C7.21471 3.67574 7.32869 3.56437 7.38403 3.42196L8.30276 1.05949H9.69679L10.6157 3.42196C10.671 3.56423 10.785 3.67574 10.9285 3.72793C11.0745 3.78094 11.2221 3.84177 11.3671 3.90865C11.5049 3.97237 11.6635 3.97388 11.8026 3.91277L14.1218 2.89215L15.1074 3.87789L14.0975 6.17348C14.0356 6.31438 14.0379 6.47547 14.1042 6.61458C14.1774 6.76811 14.2442 6.92659 14.3028 7.08534C14.3553 7.22775 14.4664 7.34078 14.6078 7.39571L16.9406 8.3029V9.69679Z" fill="#ACACAC"/>
<path d="M10.0175 8.46742H9.25243L9.87371 7.83983C10.0796 7.63205 10.0778 7.29655 9.87 7.0907C9.66195 6.88498 9.32659 6.88663 9.12087 7.09454L7.60613 8.62453C7.45575 8.77641 7.4114 9.00383 7.49379 9.20103C7.57606 9.39838 7.76887 9.52692 7.98269 9.52692H8.73594L8.02251 10.238C7.81542 10.4447 7.81487 10.78 8.02141 10.9871C8.12496 11.091 8.26078 11.1429 8.3966 11.1429C8.53187 11.1429 8.66727 11.0914 8.77054 10.9884L10.3914 9.37228C10.5433 9.22081 10.5889 8.99284 10.5069 8.79482C10.4251 8.59665 10.2319 8.46742 10.0175 8.46742Z" fill="#ACACAC"/>
<path d="M9 4.55371C6.52629 4.55371 4.51373 6.56627 4.51373 9.04012C4.51373 11.5138 6.52629 13.5264 9 13.5264C11.4737 13.5264 13.4864 11.5138 13.4864 9.04012C13.4864 6.56627 11.4738 4.55371 9 4.55371ZM9 12.467C7.11035 12.467 5.57309 10.9296 5.57309 9.04012C5.57309 7.15047 7.11035 5.61321 9 5.61321C10.8896 5.61321 12.4269 7.15047 12.4269 9.04012C12.4269 10.9298 10.8896 12.467 9 12.467Z" fill="#ACACAC"/>
</g>
<defs>
<clipPath id="clip0">
<rect width="18" height="18" fill="white"/>
</clipPath>
</defs>
</svg>
