<svg width="19" height="19" viewBox="0 0 19 19" fill="none" xmlns="http://www.w3.org/2000/svg">
<g clip-path="url(#clip0)">
<path d="M12.5978 10.1196H0.619565C0.277564 10.1196 0 9.842 0 9.5C0 9.158 0.277564 8.88043 0.619565 8.88043H12.5978C12.9398 8.88043 13.2173 9.158 13.2173 9.5C13.2173 9.842 12.9398 10.1196 12.5978 10.1196Z" fill="#00FF29"/>
<path d="M9.29349 13.4239C9.13481 13.4239 8.97629 13.3637 8.85559 13.2422C8.61357 13.0002 8.61357 12.6078 8.85559 12.3657L11.7221 9.49927L8.85559 6.63272C8.61357 6.3907 8.61357 5.99818 8.85559 5.75616C9.09775 5.51414 9.49013 5.51414 9.73214 5.75616L13.0364 9.06061C13.2785 9.30263 13.2785 9.695 13.0364 9.93702L9.73214 13.2413C9.61068 13.3637 9.45216 13.4239 9.29349 13.4239Z" fill="#00FF29"/>
<path d="M9.91299 18.587C6.15339 18.587 2.83427 16.3252 1.45553 12.8241C1.32998 12.5069 1.48684 12.1467 1.80494 12.0212C2.12214 11.8973 2.4832 12.0517 2.60874 12.3715C3.79917 15.3942 6.66647 17.3478 9.91299 17.3478C14.24 17.3478 17.7609 13.8269 17.7609 9.49997C17.7609 5.173 14.24 1.65209 9.91299 1.65209C6.66647 1.65209 3.79917 3.60578 2.60874 6.62843C2.48229 6.9482 2.12214 7.10263 1.80494 6.97875C1.48684 6.8532 1.32998 6.49305 1.45553 6.17586C2.83427 2.67477 6.15339 0.412964 9.91299 0.412964C14.9232 0.412964 19 4.48975 19 9.49997C19 14.5102 14.9232 18.587 9.91299 18.587Z" fill="#00FF29"/>
</g>
<defs>
<clipPath id="clip0">
<rect width="19" height="19" fill="white"/>
</clipPath>
</defs>
</svg>
