<svg width="22" height="22" viewBox="0 0 22 22" fill="none" xmlns="http://www.w3.org/2000/svg">
<g clip-path="url(#clip0)">
<path d="M21.8212 20.9581L1.04291 0.179732C0.80457 -0.0586085 0.417095 -0.0586085 0.178755 0.179732C-0.059585 0.418072 -0.059585 0.805546 0.178755 1.04389L20.9571 21.8223C21.0769 21.9408 21.2334 22.0007 21.3898 22.0007C21.5463 22.0007 21.7027 21.9409 21.8213 21.8223C22.0596 21.5839 22.0596 21.1964 21.8212 20.9581Z" fill="#919191"/>
<path d="M21.8212 0.179732C21.5829 -0.0586085 21.1954 -0.0586085 20.9571 0.179732L0.178755 20.9581C-0.059585 21.1964 -0.059585 21.5839 0.178755 21.8222C0.298555 21.9408 0.454966 22.0007 0.611434 22.0007C0.767902 22.0007 0.924313 21.9408 1.04291 21.8222L21.8212 1.04383C22.0596 0.805489 22.0596 0.418072 21.8212 0.179732Z" fill="#919191"/>
</g>
<defs>
<clipPath id="clip0">
<rect width="22" height="22" fill="white"/>
</clipPath>
</defs>
</svg>
