<svg width="25" height="25" viewBox="0 0 25 25" fill="none" xmlns="http://www.w3.org/2000/svg">
<path fill-rule="evenodd" clip-rule="evenodd" d="M12.5 25C19.4036 25 25 19.4036 25 12.5C25 5.59644 19.4036 0 12.5 0C5.59644 0 0 5.59644 0 12.5C0 19.4036 5.59644 25 12.5 25ZM12.5 23.5C18.5751 23.5 23.5 18.5751 23.5 12.5C23.5 6.42487 18.5751 1.5 12.5 1.5C6.42487 1.5 1.5 6.42487 1.5 12.5C1.5 18.5751 6.42487 23.5 12.5 23.5ZM12.3411 10.2771L12.365 10.6881L11.9676 10.6377C10.521 10.4449 9.25726 9.79078 8.18427 8.69224L7.65969 8.14717L7.52458 8.54968C7.23844 9.44696 7.42125 10.3945 8.01736 11.0319C8.33528 11.3841 8.26375 11.4344 7.71533 11.2247C7.52458 11.1577 7.35767 11.1073 7.34177 11.1325C7.28613 11.1912 7.47689 11.9543 7.6279 12.2562C7.83455 12.6755 8.2558 13.0864 8.71679 13.3296L9.10625 13.5224L8.64526 13.5308C8.20016 13.5308 8.18427 13.5392 8.23196 13.7153C8.39092 14.2604 9.01882 14.839 9.71825 15.0906L10.211 15.2667L9.78184 15.535C9.14599 15.9208 8.39887 16.1388 7.65174 16.1556C7.29408 16.1639 7 16.1975 7 16.2226C7 16.3065 7.96967 16.7761 8.53398 16.9606C10.2269 17.5057 12.2378 17.2709 13.7479 16.34C14.8209 15.6776 15.8939 14.361 16.3947 13.0864C16.6649 12.4071 16.9351 11.166 16.9351 10.5707C16.9351 10.1849 16.959 10.1346 17.4041 9.67338C17.6664 9.40503 17.9128 9.11153 17.9604 9.02767C18.0399 8.86834 18.032 8.86834 17.6266 9.0109C16.951 9.26247 16.8557 9.22893 17.1895 8.85157C17.4359 8.58323 17.7299 8.09685 17.7299 7.9543C17.7299 7.92914 17.6107 7.97107 17.4756 8.04654C17.3325 8.1304 17.0146 8.25618 16.7762 8.33165L16.347 8.47421L15.9575 8.19748C15.7429 8.04654 15.4409 7.87882 15.2819 7.82851C14.8766 7.71111 14.2566 7.72788 13.891 7.86205C12.8975 8.23941 12.2696 9.21216 12.3411 10.2771C12.3411 10.2771 12.2696 9.21216 12.3411 10.2771Z" fill="white"/>
</svg>
