<svg width="25" height="26" viewBox="0 0 25 26" fill="none" xmlns="http://www.w3.org/2000/svg">
<g clip-path="url(#clip0)">
<path fill-rule="evenodd" clip-rule="evenodd" d="M12.5 25.5C19.4036 25.5 25 19.9036 25 13C25 6.09644 19.4036 0.5 12.5 0.5C5.59644 0.5 0 6.09644 0 13C0 19.9036 5.59644 25.5 12.5 25.5ZM12.5 24C18.5751 24 23.5 19.0751 23.5 13C23.5 6.92487 18.5751 2 12.5 2C6.42487 2 1.5 6.92487 1.5 13C1.5 19.0751 6.42487 24 12.5 24ZM13.4073 18.5V12.9994H15.0344L15.25 11.1038H13.4073L13.41 10.1551C13.41 9.66067 13.4604 9.39577 14.2213 9.39577H15.2385V7.5H13.6111C11.6564 7.5 10.9684 8.41955 10.9684 9.96594V11.104H9.75V12.9996H10.9684V18.5H13.4073Z" fill="white"/>
</g>
<defs>
<clipPath id="clip0">
<rect width="25" height="25" fill="white" transform="translate(0 0.5)"/>
</clipPath>
</defs>
</svg>
