<svg width="25" height="26" viewBox="0 0 25 26" fill="none" xmlns="http://www.w3.org/2000/svg">
<g clip-path="url(#clip0)">
<path fill-rule="evenodd" clip-rule="evenodd" d="M12.5 25.5C19.4036 25.5 25 19.9036 25 13C25 6.09644 19.4036 0.5 12.5 0.5C5.59644 0.5 0 6.09644 0 13C0 19.9036 5.59644 25.5 12.5 25.5ZM12.5 24C18.5751 24 23.5 19.0751 23.5 13C23.5 6.92487 18.5751 2 12.5 2C6.42487 2 1.5 6.92487 1.5 13C1.5 19.0751 6.42487 24 12.5 24ZM7 10.559V17.8291H9.35504V10.559H7ZM8.33235 7C7.5267 7 7 7.54293 7 8.25576C7 8.95382 7.51114 9.51238 8.30178 9.51238H8.31683C9.13799 9.51238 9.64941 8.95382 9.64941 8.25576C9.63413 7.54293 9.13799 7 8.33235 7ZM15.2885 10.559C14.0381 10.559 13.4783 11.2647 13.1657 11.7597V10.7299H10.8104C10.8414 11.4121 10.8104 18 10.8104 18H13.1657V13.9398C13.1657 13.7225 13.181 13.5058 13.2433 13.3502C13.4135 12.9161 13.801 12.4667 14.4516 12.4667C15.3042 12.4667 15.645 13.1334 15.645 14.1103V17.9998H17.9999L18 13.8314C18 11.5983 16.8382 10.559 15.2885 10.559Z" fill="white"/>
</g>
<defs>
<clipPath id="clip0">
<rect width="25" height="25" fill="white" transform="translate(0 0.5)"/>
</clipPath>
</defs>
</svg>
