<svg width="25" height="25" viewBox="0 0 25 25" fill="none" xmlns="http://www.w3.org/2000/svg">
<path d="M11.2916 17.5415C11.117 17.7161 11.117 17.9982 11.2916 18.1728C11.3786 18.2598 11.4929 18.3036 11.6072 18.3036C11.7215 18.3036 11.8358 18.2598 11.9228 18.1728L17.2795 12.8161C17.321 12.775 17.3536 12.7254 17.3764 12.6705C17.4215 12.5616 17.4215 12.4388 17.3764 12.3295C17.3536 12.2746 17.3206 12.225 17.2795 12.1835L11.9228 6.82723C11.7483 6.65268 11.4661 6.65268 11.2916 6.82723C11.117 7.00179 11.117 7.28393 11.2916 7.45848L15.8867 12.0536H2.2322C1.98532 12.0536 1.78577 12.2531 1.78577 12.5C1.78577 12.7469 1.98532 12.9464 2.2322 12.9464H15.8867L11.2916 17.5415Z" fill="#00FF29"/>
<path d="M22.7679 0H6.25002C6.00314 0 5.80359 0.199554 5.80359 0.446429V9.82143C5.80359 10.0683 6.00314 10.2679 6.25002 10.2679C6.49689 10.2679 6.69645 10.0683 6.69645 9.82143V0.892857H22.3214V24.1071H6.69645V15.1786C6.69645 14.9317 6.49689 14.7321 6.25002 14.7321C6.00314 14.7321 5.80359 14.9317 5.80359 15.1786V24.5536C5.80359 24.8004 6.00314 25 6.25002 25H22.7679C23.0147 25 23.2143 24.8004 23.2143 24.5536V0.446429C23.2143 0.199554 23.0147 0 22.7679 0Z" fill="#00FF29"/>
</svg>
