<svg width="27" height="26" viewBox="0 0 27 26" fill="none" xmlns="http://www.w3.org/2000/svg">
<path d="M13.5 0C6.04468 0 0 5.96795 0 13.3286C0 19.2185 3.86775 24.2135 9.23263 25.9755C9.90747 26.0976 10.1538 25.6859 10.1538 25.3345C10.1538 25.0172 10.1415 23.9662 10.1349 22.8533C6.38086 23.6586 5.58737 21.2816 5.58737 21.2816C4.97269 19.7424 4.08855 19.3324 4.08855 19.3324C2.86166 18.5058 4.18162 18.5221 4.18162 18.5221C5.53706 18.6148 6.25066 19.8953 6.25066 19.8953C7.45532 21.9324 9.41142 21.3434 10.1794 21.0017C10.3021 20.1426 10.6514 19.5537 11.0363 19.2217C8.03951 18.885 4.887 17.7411 4.887 12.6339C4.887 11.1777 5.41353 9.98997 6.27539 9.05686C6.13778 8.71844 5.67306 7.3623 6.40886 5.52784C6.40886 5.52784 7.54102 5.1699 10.1217 6.89455C11.1978 6.59762 12.3522 6.45119 13.5 6.4463C14.6469 6.45119 15.8021 6.59924 16.8799 6.89616C19.4557 5.1699 20.5895 5.52946 20.5895 5.52946C21.3278 7.36556 20.863 8.72005 20.7246 9.05686C21.5898 9.98997 22.1122 11.1777 22.1122 12.6339C22.1122 17.7542 18.9547 18.8817 15.9472 19.212C16.4334 19.6252 16.8635 20.4355 16.8635 21.6786C16.8635 23.4602 16.8453 24.8968 16.8453 25.3361C16.8453 25.6908 17.0909 26.1057 17.7748 25.9755C23.1356 24.2102 27 19.2152 27 13.3286C27 5.96795 20.9553 0 13.5 0Z" fill="white"/>
</svg>
