<?xml version="1.0" encoding="UTF-8"?>
<svg width="672px" height="241px" viewBox="0 0 672 241" version="1.1" xmlns="http://www.w3.org/2000/svg" xmlns:xlink="http://www.w3.org/1999/xlink">
    <!-- Generator: Sketch 52.4 (67378) - http://www.bohemiancoding.com/sketch -->
    <title>Group 2</title>
    <desc>Created with Sketch.</desc>
    <g id="Page-1" stroke="none" stroke-width="1" fill="none" fill-rule="evenodd">
        <g id="Artboard-Copy" transform="translate(-126.000000, -97.000000)" fill="#000000">
            <g id="Group-2" transform="translate(126.000000, 97.000000)">
                <g id="Group">
                    <g id="Group-3">
                        <path d="M54.09,142.01 L33.38,142.01 L33.38,184 L0.51,184 L0.51,57.27 L52.95,57.27 C63.97,57.27 75.37,59.36 85.06,68.67 C94.94,78.17 96.84,88.81 96.84,99.45 C96.84,109.52 95.51,121.3 85.63,130.99 C75.75,140.68 63.97,142.01 54.09,142.01 Z M33.38,83.87 L33.38,115.41 L44.4,115.41 C47.82,115.41 54.28,115.03 58.27,111.42 C62.26,108 62.45,102.87 62.45,99.83 C62.45,96.41 62.07,91.85 58.65,88.43 C54.85,84.44 48.77,83.87 44.59,83.87 L33.38,83.87 Z M159.16,122.06 C154.22,122.06 148.9,124.34 145.48,127.57 C141.68,131.18 139.59,136.5 139.59,141.44 C139.59,146.57 142.06,151.51 145.48,154.93 C149.09,158.54 154.03,160.63 159.16,160.63 C164.1,160.63 169.04,158.54 172.65,154.93 C176.45,151.32 178.54,146.38 178.54,141.44 C178.54,136.88 176.45,131.37 172.65,127.57 C169.23,124.34 163.91,122.06 159.16,122.06 Z M210.08,141.44 C210.08,152.84 206.28,163.67 196.97,172.79 C185.76,183.81 172.65,186.85 158.97,186.85 C146.62,186.85 132.94,184.38 121.16,172.79 C111.85,163.67 108.05,152.84 108.05,141.44 C108.05,126.24 114.89,116.36 121.16,110.28 C128.19,103.44 140.54,96.22 158.97,96.22 C177.78,96.22 189.94,103.63 196.97,110.28 C203.24,116.36 210.08,126.24 210.08,141.44 Z M317.62,143.91 L317.62,147.14 L254.35,147.14 C254.35,151.7 256.06,157.78 259.67,161.39 C261.57,163.29 265.37,165.57 272.21,165.57 C272.97,165.57 278.29,165.38 282.09,163.29 C283.99,162.15 286.08,160.25 287.41,157.59 L316.48,157.59 C315.15,162.34 312.49,168.99 306.22,175.07 C299.95,181.15 290.07,186.85 271.64,186.85 C260.43,186.85 246.94,184.38 236.49,173.93 C230.98,168.42 223.95,157.97 223.95,141.82 C223.95,127.57 229.27,116.17 236.68,108.95 C243.71,102.11 254.73,96.6 271.45,96.6 C281.33,96.6 294.06,98.69 304.13,108.19 C316.1,119.59 317.62,134.41 317.62,143.91 Z M255.3,129.66 L289.69,129.66 C288.93,126.43 287.03,122.82 284.75,120.54 C280.76,116.55 275.25,115.98 272.21,115.98 C267.08,115.98 263.09,117.31 259.86,120.54 C257.77,122.82 255.87,125.86 255.3,129.66 Z M386.02,123.96 L368.73,123.96 L368.73,184 L338.33,184 L338.33,123.96 L328.64,123.96 L328.64,99.07 L338.33,99.07 L338.33,71.14 L368.73,71.14 L368.73,99.07 L386.02,99.07 L386.02,123.96 Z M397.42,184 L397.42,99.07 L427.82,99.07 L427.82,112.94 C430.86,107.24 435.23,103.44 439.79,101.16 C444.35,98.69 449.86,97.74 455.56,97.74 C456.32,97.74 457.65,97.93 461.64,98.12 L461.64,126.81 C460.12,126.05 455.94,123.77 448.53,123.77 C444.54,123.77 439.03,124.34 434.66,128.33 C428.2,134.22 427.82,143.15 427.82,147.71 L427.82,184 L397.42,184 Z M475.13,99.07 L505.53,99.07 L505.53,184 L475.13,184 L475.13,99.07 Z M473.23,63.73 C473.23,54.23 480.83,46.63 490.33,46.63 C499.83,46.63 507.43,54.23 507.43,63.73 C507.43,73.23 499.83,80.83 490.33,80.83 C480.83,80.83 473.23,73.23 473.23,63.73 Z" id="Poetri"></path>
                        <rect id="Rectangle-3" x="551" y="0" width="121" height="241"></rect>
                    </g>
                </g>
            </g>
        </g>
    </g>
</svg>