<svg width="44" height="43" viewBox="0 0 44 43" fill="none" xmlns="http://www.w3.org/2000/svg">
<g clip-path="url(#clip0)">
<path d="M37.0061 20.5326L7.56928 0.231366C7.25765 0.0171879 6.85366 -0.00514343 6.52072 0.168432C6.18676 0.344038 5.97766 0.689159 5.97766 1.06676V41.6692C5.97766 42.0468 6.18676 42.393 6.52072 42.5686C6.66892 42.6457 6.83133 42.6843 6.99272 42.6843C7.19472 42.6843 7.3957 42.6234 7.56928 42.5046L37.0061 22.2034C37.2812 22.0136 37.4446 21.702 37.4446 21.368C37.4446 21.034 37.2801 20.7224 37.0061 20.5326Z" fill="#00FF29"/>
<path d="M28.7492 21.049L11.9105 10.0964C11.7322 9.98082 11.5011 9.96877 11.3106 10.0624C11.1196 10.1572 11 10.3434 11 10.5471V32.4524C11 32.6561 11.1196 32.8428 11.3106 32.9376C11.3954 32.9792 11.4883 33 11.5806 33C11.6962 33 11.8112 32.9671 11.9105 32.9031L28.7492 21.9504C28.9065 21.848 29 21.6799 29 21.4997C29 21.3196 28.9059 21.1514 28.7492 21.049Z" fill="black"/>
</g>
<defs>
<clipPath id="clip0">
<rect width="42.6316" height="42.6316" fill="white" transform="translate(0.394775 0.0527344)"/>
</clipPath>
</defs>
</svg>
