<svg width="27" height="27" viewBox="0 0 27 27" fill="none" xmlns="http://www.w3.org/2000/svg">
<g clip-path="url(#clip0)">
<path d="M17.3607 18.5002V18.0301C17.4936 17.9228 17.6213 17.8053 17.7439 17.6826C18.7259 16.6014 19.3442 15.2396 19.512 13.7887C20.3946 13.6543 21.19 13.1813 21.7298 12.4703C22.4708 11.4228 22.5372 9.91527 21.9189 8.02453C21.8826 7.9155 21.8106 7.82185 21.7145 7.75881L21.4334 7.56973C21.4749 5.86373 20.8853 4.20243 19.7778 2.90421C18.4031 1.35585 16.2927 0.574002 13.4975 0.563782C10.7073 0.563782 8.59175 1.35585 7.21714 2.88377C6.10959 4.18199 5.52001 5.84329 5.56146 7.54929L5.28041 7.73837C5.18434 7.80141 5.11235 7.89506 5.076 8.00409C4.45768 9.90505 4.52411 11.4023 5.26508 12.4499C5.80285 13.1659 6.5983 13.6442 7.48286 13.7836C7.65137 15.2368 8.27161 16.6005 9.25607 17.6826C9.37775 17.805 9.50563 17.921 9.63933 18.0301V18.5002C7.68216 18.8784 -0.131188 20.7129 0.00167428 25.9252C0.00167428 26.2074 0.230479 26.4362 0.512684 26.4362H26.4873C26.7695 26.4362 26.9983 26.2074 26.9983 25.9252C27.1312 20.7129 19.3179 18.8784 17.3607 18.5002ZM7.17626 12.6441C6.74203 12.4982 6.36356 12.2216 6.09292 11.852L6.11847 11.8571C5.60746 11.111 5.56146 9.9817 6.01626 8.48955L6.3893 8.23916C6.54624 8.1344 6.63267 7.95171 6.61415 7.76392C6.52817 6.23664 7.02493 4.73356 8.00409 3.5583C9.15898 2.25012 11.0139 1.59602 13.4975 1.5858C15.981 1.57558 17.8359 2.25012 19.0113 3.5583C19.9904 4.73356 20.4872 6.23664 20.4012 7.76392C20.3827 7.95171 20.4691 8.1344 20.626 8.23916L20.9991 8.48955C21.4539 9.97659 21.4232 11.111 20.8969 11.8571C20.6244 12.227 20.2443 12.5037 19.8084 12.6492C20.4248 11.9478 20.726 11.024 20.6414 10.0941C20.5456 9.53463 20.254 9.02752 19.8186 8.6633C19.5989 3.55319 16.0167 2.98086 14.4735 2.98086C14.1468 2.9799 13.8205 3.00386 13.4975 3.0524C13.1744 3.00379 12.8481 2.9799 12.5214 2.98086C10.9884 2.98086 7.41132 3.54297 7.17626 8.6633C6.73813 9.02458 6.44289 9.52997 6.34331 10.089C6.2581 11.019 6.55934 11.943 7.17626 12.6441ZM18.8017 8.45378C16.6575 8.5777 14.5266 8.04274 12.6952 6.92075C12.4879 6.77518 12.2052 6.80347 12.0309 6.98718C11.0088 8.08586 9.14365 8.34136 8.24427 8.39757C8.52021 4.78473 10.7073 3.99777 12.547 3.99777C12.8398 3.99566 13.1322 4.01962 13.4208 4.06931C13.4883 4.08311 13.5578 4.08311 13.6252 4.06931C13.9138 4.01975 14.2062 3.99579 14.499 3.99777C16.3233 3.99777 18.5207 4.80517 18.7762 8.44867L18.8017 8.45378ZM8.42312 12.7412L8.44356 12.7463C8.44465 12.6203 8.39917 12.4984 8.31581 12.4039C7.61573 11.6016 7.29379 10.8709 7.38066 10.2679C7.42231 9.93201 7.58819 9.62393 7.84568 9.40426C8.52021 9.40426 10.9117 9.27651 12.4448 7.95299C14.1713 8.94557 16.1255 9.47376 18.117 9.48602C18.4594 9.48602 18.8068 9.48602 19.1697 9.42981C19.4201 9.64367 19.5837 9.94172 19.6296 10.2679C19.7164 10.8606 19.3945 11.6016 18.6944 12.4039C18.6111 12.4984 18.5656 12.6203 18.5667 12.7463C18.5667 12.7463 18.5667 12.8485 18.5667 13.012L15.5926 14.6063C15.0024 14.0476 14.0709 14.073 13.5121 14.6633C12.9533 15.2535 12.9788 16.185 13.569 16.7438C14.1592 17.3026 15.0907 17.2771 15.6495 16.6869C15.9085 16.4133 16.0527 16.051 16.0525 15.6744C16.0548 15.6284 16.0548 15.5824 16.0525 15.5364L18.398 14.2793C18.1967 15.287 17.7231 16.2201 17.0285 16.9774C16.1226 17.8496 14.8964 18.3083 13.6405 18.2447H13.385C12.1318 18.307 10.9083 17.8505 10.0021 16.9825C8.38735 15.3729 8.42312 12.7667 8.42312 12.7412ZM15.0305 15.6744C15.0305 15.9255 14.8268 16.1292 14.5757 16.1292C14.3245 16.1292 14.1209 15.9255 14.1209 15.6744C14.1209 15.4232 14.3245 15.2196 14.5757 15.2196C14.8268 15.2196 15.0305 15.4232 15.0305 15.6744ZM12.9864 25.3836H1.03902C1.44272 21.5459 7.68216 19.9413 9.63422 19.5274V20.4421C9.63422 21.6021 11.0446 22.4861 12.9864 22.6343V25.3836ZM10.6562 20.4421V20.4268V18.6791C11.5057 19.073 12.4335 19.2687 13.3697 19.2514H13.6252C14.5614 19.2687 15.4892 19.073 16.3387 18.6791V20.4421C16.3387 20.9275 15.2298 21.6276 13.4975 21.6276C11.7651 21.6276 10.6562 20.9275 10.6562 20.4421ZM14.0085 25.3989V22.6292C15.9503 22.4963 17.3607 21.6072 17.3607 20.437V19.5427C19.3281 19.9515 25.5368 21.5561 25.9559 25.3989H14.0085Z" fill="black"/>
</g>
<defs>
<clipPath id="clip0">
<rect width="27" height="27" fill="white"/>
</clipPath>
</defs>
</svg>
