<svg width="30" height="30" viewBox="0 0 30 30" fill="none" xmlns="http://www.w3.org/2000/svg">
<g clip-path="url(#clip0)">
<path d="M11.9619 14.0201C12.042 14.0639 12.1305 14.0857 12.2185 14.0857C12.3183 14.0857 12.4175 14.0574 12.505 14.0025L18.3734 10.2681C18.527 10.1699 18.6204 10.0003 18.6204 9.81783C18.6204 9.63538 18.527 9.46573 18.3734 9.36757L12.505 5.63316C12.3396 5.52913 12.1332 5.52219 11.9614 5.61555C11.7912 5.70945 11.6851 5.8887 11.6851 6.08342V13.5522C11.6851 13.747 11.7912 13.9262 11.9619 14.0201ZM12.752 7.0549L17.0935 9.81783L12.752 12.5808V7.0549Z" fill="white"/>
<path d="M0.481934 0.215088V29.5569H29.2902V0.215088H0.481934ZM28.2232 1.28206V18.8871H1.54891V1.28206H28.2232ZM1.54891 28.4899V19.9541H28.2232V28.4899H1.54891Z" fill="white"/>
<path d="M25.5559 23.6886H12.7522V22.6216C12.7522 22.3266 12.5138 22.0881 12.2187 22.0881C11.9237 22.0881 11.6853 22.3266 11.6853 22.6216V23.6886H9.55131C9.25629 23.6886 9.01782 23.9271 9.01782 24.2221C9.01782 24.5171 9.25629 24.7556 9.55131 24.7556H11.6853V25.8225C11.6853 26.1176 11.9237 26.356 12.2187 26.356C12.5138 26.356 12.7522 26.1176 12.7522 25.8225V24.7556H25.5559C25.8509 24.7556 26.0894 24.5171 26.0894 24.2221C26.0894 23.9271 25.8509 23.6886 25.5559 23.6886Z" fill="white"/>
<path d="M4.21635 22.0881C3.92133 22.0881 3.68286 22.3266 3.68286 22.6216V25.8225C3.68286 26.1176 3.92133 26.356 4.21635 26.356C4.51137 26.356 4.74984 26.1176 4.74984 25.8225V22.6216C4.74984 22.3266 4.51137 22.0881 4.21635 22.0881Z" fill="white"/>
<path d="M6.35038 22.0881C6.05536 22.0881 5.81689 22.3266 5.81689 22.6216V25.8225C5.81689 26.1176 6.05536 26.356 6.35038 26.356C6.6454 26.356 6.88387 26.1176 6.88387 25.8225V22.6216C6.88387 22.3266 6.6454 22.0881 6.35038 22.0881Z" fill="white"/>
</g>
<defs>
<clipPath id="clip0">
<rect width="29.3418" height="29.3418" fill="white" transform="translate(0.215088 0.215088)"/>
</clipPath>
</defs>
</svg>
