<svg width="29" height="29" viewBox="0 0 29 29" fill="none" xmlns="http://www.w3.org/2000/svg">
<g clip-path="url(#clip0)">
<path d="M0.673699 29C0.510857 29 0.352441 28.9356 0.234956 28.8168C0.0800789 28.6602 0.0203408 28.4327 0.0785302 28.2201L1.96382 21.3356C0.790078 19.2131 0.171235 16.8121 0.17212 14.3748C0.175439 6.4484 6.62583 0 14.5515 0C18.3958 0.00154877 22.008 1.49899 24.723 4.21597C27.4375 6.93317 28.9318 10.5451 28.9307 14.3863C28.9272 22.3129 22.4768 28.7617 14.5515 28.7617C14.5515 28.7617 14.5456 28.7617 14.5453 28.7617C12.2304 28.7608 9.93533 28.1966 7.89184 27.128L0.830125 28.9799C0.778352 28.9934 0.725694 29 0.673699 29Z" fill="#E5E5E5"/>
<path d="M0.673828 28.3829L2.62616 21.2535C1.42188 19.1669 0.788437 16.7999 0.789322 14.375C0.792419 6.7889 6.96581 0.617065 14.5517 0.617065C18.2329 0.618614 21.6882 2.05145 24.2866 4.65205C26.8847 7.25265 28.3151 10.7095 28.3138 14.386C28.3105 21.9719 22.1362 28.1446 14.5517 28.1446C14.5512 28.1446 14.5519 28.1446 14.5517 28.1446H14.5457C12.2425 28.1437 9.97948 27.5661 7.96941 26.4697L0.673828 28.3829ZM8.30726 23.9791L8.7252 24.2267C10.4811 25.2688 12.4942 25.8199 14.5472 25.821H14.5517C20.856 25.821 25.9873 20.6906 25.99 14.3852C25.9911 11.3294 24.8025 8.45604 22.6429 6.29462C20.483 4.13321 17.6114 2.94221 14.5559 2.94088C8.24641 2.94088 3.11535 8.07062 3.11292 14.3759C3.11203 16.5366 3.71649 18.6407 4.86169 20.4616L5.13383 20.8944L3.97801 25.1141L8.30726 23.9791Z" fill="white"/>
<path d="M1.15234 27.9026L3.03719 21.0196C1.87429 19.0054 1.26297 16.72 1.26363 14.3794C1.26651 7.05596 7.22639 1.09785 14.5492 1.09785C18.1034 1.0994 21.4392 2.48267 23.9471 4.99323C26.4557 7.50378 27.8363 10.8409 27.8349 14.3898C27.8319 21.7135 21.8718 27.6723 14.5498 27.6723C14.5492 27.6723 14.5501 27.6723 14.5498 27.6723H14.5439C12.3205 27.6714 10.1356 27.1134 8.19525 26.0558L1.15234 27.9026Z" fill="#64B161"/>
<path d="M0.673828 28.3829L2.62616 21.2535C1.42188 19.1669 0.788437 16.7999 0.789322 14.375C0.792419 6.7889 6.96581 0.617065 14.5517 0.617065C18.2329 0.618614 21.6882 2.05145 24.2866 4.65205C26.8847 7.25265 28.3151 10.7095 28.3138 14.386C28.3105 21.9719 22.1362 28.1446 14.5517 28.1446C14.5512 28.1446 14.5519 28.1446 14.5517 28.1446H14.5457C12.2425 28.1437 9.97948 27.5661 7.96941 26.4697L0.673828 28.3829ZM8.30726 23.9791L8.7252 24.2267C10.4811 25.2688 12.4942 25.8199 14.5472 25.821H14.5517C20.856 25.821 25.9873 20.6906 25.99 14.3852C25.9911 11.3294 24.8025 8.45604 22.6429 6.29462C20.483 4.13321 17.6114 2.94221 14.5559 2.94088C8.24641 2.94088 3.11535 8.07062 3.11292 14.3759C3.11203 16.5366 3.71649 18.6407 4.86169 20.4616L5.13383 20.8944L3.97801 25.1141L8.30726 23.9791Z" fill="white"/>
<path fill-rule="evenodd" clip-rule="evenodd" d="M11.1121 8.62331C10.8546 8.05071 10.5833 8.0392 10.3382 8.02925C10.1377 8.02062 9.90829 8.02106 9.6793 8.02106C9.45008 8.02106 9.07749 8.10735 8.76243 8.4514C8.44714 8.79544 7.55859 9.62735 7.55859 11.3193C7.55859 13.0114 8.79097 14.6462 8.96288 14.8759C9.1348 15.1053 11.3418 18.6883 14.8369 20.0667C17.7417 21.2124 18.3327 20.9845 18.9633 20.9272C19.5938 20.8699 20.9977 20.0953 21.2842 19.2923C21.5709 18.4894 21.5709 17.8013 21.4849 17.6573C21.3988 17.5141 21.1696 17.4281 20.8258 17.2561C20.4819 17.0842 18.7914 16.2521 18.4761 16.1375C18.1608 16.0227 17.9316 15.9656 17.7023 16.3098C17.4729 16.6537 16.8145 17.4281 16.6138 17.6573C16.4131 17.8872 16.2124 17.9159 15.8686 17.7438C15.5248 17.5714 14.4172 17.2086 13.1034 16.037C12.0812 15.1257 11.3909 14 11.1902 13.6557C10.9898 13.3119 11.1869 13.1419 11.3413 12.9541C11.6195 12.6158 12.0861 12.0076 12.2007 11.7784C12.3153 11.5487 12.258 11.348 12.1721 11.1759C12.0861 11.004 11.4177 9.30344 11.1121 8.62331Z" fill="white"/>
</g>
<defs>
<clipPath id="clip0">
<rect width="29" height="29" fill="white"/>
</clipPath>
</defs>
</svg>
