<svg width="72" height="14" viewBox="0 0 72 14" fill="none" xmlns="http://www.w3.org/2000/svg">
<path d="M7.97999 0L15.96 13.7646H0L7.97999 0Z" fill="url(#paint0_linear)"/>
<path d="M26.8435 10.3477H33.2452V9.26731H28.44L33.167 2.70861V1.76514H26.9218V2.84557H31.5705L26.8435 9.40427V10.3477ZM39.9444 10.3477H45.6887V9.26731H41.2435V6.51296H45.1096V5.43253H41.2435V2.84557H45.6887V1.76514H39.9444V10.3477ZM52.607 10.3477H58.2105V9.26731H56.0661V2.84557H58.2105V1.76514H52.607V2.84557H54.767V9.26731H52.607V10.3477ZM67.4296 10.3477H68.7287V2.84557H71.7339V1.76514H64.4557V2.84557H67.4296V10.3477Z" fill="#333333"/>
<defs>
<linearGradient id="paint0_linear" x1="18.3094" y1="24.9528" x2="8.18918" y2="12.266" gradientUnits="userSpaceOnUse">
<stop stop-color="white"/>
<stop offset="1"/>
</linearGradient>
</defs>
</svg>
